<mxfile host="app.diagrams.net" modified="2020-09-23T06:53:10.796Z" agent="5.0 (Windows NT 10.0; Win64; x64) AppleWebKit/537.36 (KHTML, like Gecko) Chrome/85.0.4183.102 Safari/537.36" etag="kDxM9u-Q4m0p6WG53U-H" version="13.7.3" type="github">
  <diagram id="y8fQAS1Pd3163THCr6ce" name="Page-1">
    <mxGraphModel dx="1422" dy="794" grid="1" gridSize="10" guides="1" tooltips="1" connect="1" arrows="1" fold="1" page="1" pageScale="1" pageWidth="1169" pageHeight="827" math="0" shadow="0">
      <root>
        <mxCell id="0" />
        <mxCell id="1" parent="0" />
        <mxCell id="IL-hVEgLl5qu0awRyLGG-7" style="edgeStyle=orthogonalEdgeStyle;rounded=0;orthogonalLoop=1;jettySize=auto;html=1;exitX=0.75;exitY=1;exitDx=0;exitDy=0;entryX=0.75;entryY=0;entryDx=0;entryDy=0;" edge="1" parent="1" source="IL-hVEgLl5qu0awRyLGG-1" target="IL-hVEgLl5qu0awRyLGG-2">
          <mxGeometry relative="1" as="geometry" />
        </mxCell>
        <mxCell id="IL-hVEgLl5qu0awRyLGG-18" value="Klik Registerasi" style="edgeLabel;html=1;align=center;verticalAlign=middle;resizable=0;points=[];" vertex="1" connectable="0" parent="IL-hVEgLl5qu0awRyLGG-7">
          <mxGeometry x="-0.2353" y="-2" relative="1" as="geometry">
            <mxPoint y="25" as="offset" />
          </mxGeometry>
        </mxCell>
        <mxCell id="IL-hVEgLl5qu0awRyLGG-9" style="edgeStyle=orthogonalEdgeStyle;rounded=0;orthogonalLoop=1;jettySize=auto;html=1;exitX=1;exitY=0.25;exitDx=0;exitDy=0;entryX=0;entryY=0.25;entryDx=0;entryDy=0;" edge="1" parent="1" source="IL-hVEgLl5qu0awRyLGG-1" target="IL-hVEgLl5qu0awRyLGG-3">
          <mxGeometry relative="1" as="geometry">
            <Array as="points">
              <mxPoint x="460" y="265" />
              <mxPoint x="460" y="385" />
            </Array>
          </mxGeometry>
        </mxCell>
        <mxCell id="IL-hVEgLl5qu0awRyLGG-15" value="Klik Login" style="edgeLabel;html=1;align=center;verticalAlign=middle;resizable=0;points=[];" vertex="1" connectable="0" parent="IL-hVEgLl5qu0awRyLGG-9">
          <mxGeometry x="-0.4783" y="-30" relative="1" as="geometry">
            <mxPoint x="35" y="30" as="offset" />
          </mxGeometry>
        </mxCell>
        <mxCell id="IL-hVEgLl5qu0awRyLGG-1" value="Login Page" style="rounded=0;whiteSpace=wrap;html=1;" vertex="1" parent="1">
          <mxGeometry x="280" y="250" width="120" height="60" as="geometry" />
        </mxCell>
        <mxCell id="IL-hVEgLl5qu0awRyLGG-8" style="edgeStyle=orthogonalEdgeStyle;rounded=0;orthogonalLoop=1;jettySize=auto;html=1;exitX=0.25;exitY=0;exitDx=0;exitDy=0;entryX=0.25;entryY=1;entryDx=0;entryDy=0;" edge="1" parent="1" source="IL-hVEgLl5qu0awRyLGG-2" target="IL-hVEgLl5qu0awRyLGG-1">
          <mxGeometry relative="1" as="geometry" />
        </mxCell>
        <mxCell id="IL-hVEgLl5qu0awRyLGG-21" value="Klik Register" style="edgeLabel;html=1;align=center;verticalAlign=middle;resizable=0;points=[];" vertex="1" connectable="0" parent="IL-hVEgLl5qu0awRyLGG-8">
          <mxGeometry x="0.2471" y="2" relative="1" as="geometry">
            <mxPoint as="offset" />
          </mxGeometry>
        </mxCell>
        <mxCell id="IL-hVEgLl5qu0awRyLGG-2" value="Registeration Page" style="rounded=0;whiteSpace=wrap;html=1;" vertex="1" parent="1">
          <mxGeometry x="280" y="480" width="120" height="60" as="geometry" />
        </mxCell>
        <mxCell id="IL-hVEgLl5qu0awRyLGG-12" style="edgeStyle=orthogonalEdgeStyle;rounded=0;orthogonalLoop=1;jettySize=auto;html=1;entryX=0;entryY=0.5;entryDx=0;entryDy=0;" edge="1" parent="1" source="IL-hVEgLl5qu0awRyLGG-3" target="IL-hVEgLl5qu0awRyLGG-4">
          <mxGeometry relative="1" as="geometry" />
        </mxCell>
        <mxCell id="IL-hVEgLl5qu0awRyLGG-22" value="Klik Login" style="edgeLabel;html=1;align=center;verticalAlign=middle;resizable=0;points=[];" vertex="1" connectable="0" parent="IL-hVEgLl5qu0awRyLGG-12">
          <mxGeometry x="-0.3467" y="2" relative="1" as="geometry">
            <mxPoint as="offset" />
          </mxGeometry>
        </mxCell>
        <mxCell id="IL-hVEgLl5qu0awRyLGG-14" style="edgeStyle=orthogonalEdgeStyle;rounded=0;orthogonalLoop=1;jettySize=auto;html=1;exitX=0;exitY=0.75;exitDx=0;exitDy=0;entryX=1;entryY=0.75;entryDx=0;entryDy=0;" edge="1" parent="1" source="IL-hVEgLl5qu0awRyLGG-3" target="IL-hVEgLl5qu0awRyLGG-1">
          <mxGeometry relative="1" as="geometry">
            <Array as="points">
              <mxPoint x="430" y="415" />
              <mxPoint x="430" y="295" />
            </Array>
          </mxGeometry>
        </mxCell>
        <mxCell id="IL-hVEgLl5qu0awRyLGG-16" value="Klik Cancel" style="edgeLabel;html=1;align=center;verticalAlign=middle;resizable=0;points=[];" vertex="1" connectable="0" parent="IL-hVEgLl5qu0awRyLGG-14">
          <mxGeometry x="0.087" relative="1" as="geometry">
            <mxPoint as="offset" />
          </mxGeometry>
        </mxCell>
        <mxCell id="IL-hVEgLl5qu0awRyLGG-3" value="Voice Input Page" style="rounded=0;whiteSpace=wrap;html=1;" vertex="1" parent="1">
          <mxGeometry x="510" y="370" width="120" height="60" as="geometry" />
        </mxCell>
        <mxCell id="IL-hVEgLl5qu0awRyLGG-13" style="edgeStyle=orthogonalEdgeStyle;rounded=0;orthogonalLoop=1;jettySize=auto;html=1;entryX=0.75;entryY=0;entryDx=0;entryDy=0;" edge="1" parent="1" source="IL-hVEgLl5qu0awRyLGG-4" target="IL-hVEgLl5qu0awRyLGG-1">
          <mxGeometry relative="1" as="geometry">
            <Array as="points">
              <mxPoint x="840" y="230" />
              <mxPoint x="370" y="230" />
            </Array>
          </mxGeometry>
        </mxCell>
        <mxCell id="IL-hVEgLl5qu0awRyLGG-17" value="Klik Logout" style="edgeLabel;html=1;align=center;verticalAlign=middle;resizable=0;points=[];" vertex="1" connectable="0" parent="IL-hVEgLl5qu0awRyLGG-13">
          <mxGeometry x="-0.0571" relative="1" as="geometry">
            <mxPoint as="offset" />
          </mxGeometry>
        </mxCell>
        <mxCell id="IL-hVEgLl5qu0awRyLGG-4" value="Successfully Login" style="rounded=0;whiteSpace=wrap;html=1;" vertex="1" parent="1">
          <mxGeometry x="780" y="370" width="120" height="60" as="geometry" />
        </mxCell>
      </root>
    </mxGraphModel>
  </diagram>
</mxfile>
